<svg width="33" height="33" version="1.1" viewBox="0 0 33 33" xmlns="http://www.w3.org/2000/svg">
 <path d="m4.9726 0.04988c-1.2225 0.20561-2.3282 0.78132-3.221 1.6723-0.65931 0.66481-0.94088 1.076-1.3049 1.9327-0.47387 1.0897-0.4464 0.39066-0.4464 12.796 0 12.138-0.0137 11.658 0.37773 12.686 0.26784 0.7197 0.67991 1.3639 1.2637 1.9739 0.831 0.8704 1.7238 1.3913 2.9051 1.7066l0.57003 0.1507 10.954 0.0275c7.7949 0.0137 11.153 0 11.634-0.0549 1.4285-0.1645 2.5823-0.7059 3.5713-1.686 0.7348-0.7265 1.1675-1.4324 1.5246-2.4947l0.1992-0.5826v-23.303l-0.1581-0.54144c-0.5768-1.9944-2.0739-3.4954-4.0999-4.1328l-0.6181-0.1919-11.4-0.00691c-6.2704-0.00691-11.559 0.0137-11.751 0.04797zm7.3142 12.357c2.3144 2.2206 4.1894 4.0643 4.1824 4.0917-0.0137 0.0274-1.9161 1.871-4.2306 4.0985l-4.2168 4.0505-1.092-1.0486c-0.5975-0.5688-1.092-1.076-1.0851-1.1103 0-0.0411 1.3942-1.3981 3.0905-3.0156 1.6895-1.6243 3.0768-2.9677 3.0836-2.9882 0-0.0274-1.3873-1.3845-3.0905-3.0157-1.6964-1.6311-3.0905-2.9813-3.0905-3.0019 0-0.0891 2.1016-2.1315 2.1702-2.1178 0.0481 0.0137 1.9711 1.8368 4.2787 4.0574zm14.979 10.973v1.2679h-7.9666v-2.5358h7.9666z" fill="#c92071"/>
</svg>
