<svg width="64" height="64" viewBox="0 0 64 64" fill="#8F8F8F" xmlns="http://www.w3.org/2000/svg" >
<path d="M39.4125 8.59999C38.075 9.07499 37.2375 9.92499 36.9375 11.1C36.7625 11.7625 37.0125 11.65 34.5 12.125C28.05 13.325 22.4625 16.2 19.4125 19.9C16.175 23.825 13.6625 30.2625 12.7375 37.0375L12.5875 38.1375L10.3875 39.6625C9.175 40.5125 7.2625 41.85 6.125 42.625C2.0875 45.4 0.512506 46.6875 0.175006 47.4625C-0.0749936 48.0375 -0.0374936 48.6125 0.287506 49.175C0.850006 50.1875 2 50.45 3.2 49.8375C5.025 48.8875 8.1125 48.6625 11.875 49.2C15.6625 49.7375 17.7625 50.5625 21.3375 52.9C22.3875 53.575 23.6125 54.3 24.05 54.5C26.825 55.7625 30.85 55.9625 35.325 55.0625C40.6875 53.975 46.1 50.65 50.025 46.025L50.925 44.975L52.175 45.0625C52.875 45.1 54.2875 45.2375 55.3125 45.35C57.8624 45.6375 59.1124 45.6125 60.0625 45.25C60.9374 44.925 61.7999 44.1125 62.2249 43.225C62.9749 41.7 63.3249 37.025 62.9999 33.25C62.4374 26.8875 59.7374 21.55 55.125 17.7C52.95 15.875 49.725 14.0625 46.7875 12.9875L45.2625 12.4375L45.1875 11.8125C44.925 9.79999 43.4 8.52499 41.1375 8.41249C40.3125 8.37499 39.9125 8.42499 39.4125 8.59999ZM42.0875 10.7375C42.575 10.9625 43.1125 11.55 42.9625 11.7C42.925 11.7375 42.65 11.7 42.3625 11.6125C42.0625 11.525 41.2125 11.45 40.475 11.45C39.725 11.45 39.125 11.4125 39.125 11.375C39.125 11.2375 39.6875 10.7625 40 10.6375C40.5125 10.4375 41.525 10.4875 42.0875 10.7375ZM41.4375 14.0125C41.775 14.225 42.3875 14.75 42.8125 15.175C45.125 17.4875 46.2875 20.6 46.65 25.4625C46.875 28.4 46.5375 32.55 45.75 36.6875C45.4125 38.45 44.5 42.1625 44.375 42.2875C44.1875 42.5 38.475 41.4 33.4375 40.1875C30.75 39.525 25.1375 38.2 24.55 38.0625L24.2875 38L24.5125 36.5125C25.825 27.95 29.15 20.825 33.6 17.1C35.4625 15.525 37.4 14.475 39.5 13.875C40.6125 13.5625 40.7375 13.5625 41.4375 14.0125ZM33 14.8375C32.1375 15.4875 29.5375 18.2125 28.8 19.25C25.7875 23.45 23.625 29.15 22.55 35.6625C22.3625 36.775 22.2 37.7 22.1875 37.725C22.175 37.7375 21.6375 37.7 21 37.625C20.3625 37.55 18.7125 37.4875 17.35 37.5H14.8625L14.9375 37.025C15.925 31.0125 17.5375 26.4 19.925 22.8125C22.3625 19.1625 26.3125 16.55 31.8625 14.9375C32.6625 14.7 33.3375 14.5125 33.375 14.5125C33.4125 14.5 33.2375 14.65 33 14.8375ZM46.2125 15.0125C52.0375 17.175 56.3125 20.725 58.6875 25.4C60.4249 28.825 61.0999 32.3375 60.9624 37.2375C60.8874 39.975 60.6249 41.8 60.2124 42.55C59.6624 43.525 58.9249 43.6625 55.9125 43.3125C55.0375 43.2125 52.7125 43.0375 50.75 42.9375C48.7875 42.8375 47.0375 42.7125 46.8625 42.675L46.5375 42.6125L46.8875 41.275C47.0875 40.5375 47.4125 39.15 47.6125 38.1875C49.6625 28.375 49.1375 20.7125 46.0625 15.8125C45.6875 15.225 45.4125 14.75 45.4375 14.75C45.4625 14.75 45.8125 14.875 46.2125 15.0125ZM20.875 39.6875C23.8 40.025 25.35 40.35 34.4375 42.5625C39.6125 43.8125 44 44.6125 46.9125 44.825C47.575 44.875 48.125 44.9625 48.125 45.0125C48.125 45.2 46.375 46.9875 45.3625 47.825C40.825 51.6 34.9 53.6875 29.3125 53.4625C28.425 53.425 27.2625 53.3 26.75 53.1875C25.475 52.9 23.8375 52.1125 22.1875 50.975C20.3375 49.725 19.275 49.1125 17.9625 48.5625C13.7 46.8 6.7875 46.275 3.35 47.4375C2.9875 47.5625 2.875 47.575 3 47.4625C3.7375 46.875 5.6125 45.5375 8.1875 43.775C9.8375 42.6375 11.8375 41.2625 12.625 40.7C13.725 39.925 14.1875 39.675 14.625 39.6125C15.7 39.4625 19.325 39.5 20.875 39.6875Z"/>
</svg>
